<?xml version="1.0" encoding="us-ascii" standalone="no"?><svg xmlns="http://www.w3.org/2000/svg" xmlns:xlink="http://www.w3.org/1999/xlink" contentStyleType="text/css" height="561px" preserveAspectRatio="none" style="width:744px;height:561px;background:#FFFFFF;" version="1.1" viewBox="0 0 744 561" width="744px" zoomAndPan="magnify"><defs/><g><!--class UserId--><g id="elem_UserId"><rect codeLine="8" fill="#F1F1F1" height="58.5938" id="UserId" rx="2.5" ry="2.5" style="stroke:#181818;stroke-width:0.5;" width="113" x="595" y="496"/><text fill="#000000" font-family="sans-serif" font-size="14" lengthAdjust="spacing" textLength="44" x="629.5" y="513.9951">UserId</text><line style="stroke:#181818;stroke-width:0.5;" x1="596" x2="707" y1="522.2969" y2="522.2969"/><text fill="#000000" font-family="sans-serif" font-size="14" lengthAdjust="spacing" textLength="101" x="601" y="539.292">+value : String</text><line style="stroke:#181818;stroke-width:0.5;" x1="596" x2="707" y1="546.5938" y2="546.5938"/></g><!--class UserName--><g id="elem_UserName"><rect codeLine="12" fill="#F1F1F1" height="58.5938" id="UserName" rx="2.5" ry="2.5" style="stroke:#181818;stroke-width:0.5;" width="113" x="299" y="496"/><text fill="#000000" font-family="sans-serif" font-size="14" lengthAdjust="spacing" textLength="72" x="319.5" y="513.9951">UserName</text><line style="stroke:#181818;stroke-width:0.5;" x1="300" x2="411" y1="522.2969" y2="522.2969"/><text fill="#000000" font-family="sans-serif" font-size="14" lengthAdjust="spacing" textLength="101" x="305" y="539.292">+value : String</text><line style="stroke:#181818;stroke-width:0.5;" x1="300" x2="411" y1="546.5938" y2="546.5938"/></g><!--class MailAddress--><g id="elem_MailAddress"><rect codeLine="16" fill="#F1F1F1" height="58.5938" id="MailAddress" rx="2.5" ry="2.5" style="stroke:#181818;stroke-width:0.5;" width="113" x="447" y="496"/><text fill="#000000" font-family="sans-serif" font-size="14" lengthAdjust="spacing" textLength="83" x="462" y="513.9951">MailAddress</text><line style="stroke:#181818;stroke-width:0.5;" x1="448" x2="559" y1="522.2969" y2="522.2969"/><text fill="#000000" font-family="sans-serif" font-size="14" lengthAdjust="spacing" textLength="101" x="453" y="539.292">+value : String</text><line style="stroke:#181818;stroke-width:0.5;" x1="448" x2="559" y1="546.5938" y2="546.5938"/></g><!--class User--><g id="elem_User"><rect codeLine="21" fill="#F1F1F1" height="91.1875" id="User" rx="2.5" ry="2.5" style="stroke:#181818;stroke-width:0.5;" width="180" x="402.5" y="327.5"/><text fill="#000000" font-family="sans-serif" font-size="14" lengthAdjust="spacing" textLength="32" x="476.5" y="345.4951">User</text><line style="stroke:#181818;stroke-width:0.5;" x1="403.5" x2="581.5" y1="353.7969" y2="353.7969"/><text fill="#000000" font-family="sans-serif" font-size="14" lengthAdjust="spacing" textLength="112" x="408.5" y="370.792">+userId : UserId</text><text fill="#000000" font-family="sans-serif" font-size="14" lengthAdjust="spacing" textLength="168" x="408.5" y="387.0889">+userName : UserName</text><text fill="#000000" font-family="sans-serif" font-size="14" lengthAdjust="spacing" textLength="144" x="408.5" y="403.3857">+email : MailAddress</text><line style="stroke:#181818;stroke-width:0.5;" x1="403.5" x2="581.5" y1="410.6875" y2="410.6875"/></g><!--class UserDomainService--><g id="elem_UserDomainService"><rect codeLine="28" fill="#F1F1F1" height="58.5938" id="UserDomainService" rx="2.5" ry="2.5" style="stroke:#181818;stroke-width:0.5;" width="219" x="244" y="175"/><text fill="#000000" font-family="sans-serif" font-size="14" lengthAdjust="spacing" textLength="135" x="286" y="192.9951">UserDomainService</text><line style="stroke:#181818;stroke-width:0.5;" x1="245" x2="462" y1="201.2969" y2="201.2969"/><line style="stroke:#181818;stroke-width:0.5;" x1="245" x2="462" y1="209.2969" y2="209.2969"/><text fill="#000000" font-family="sans-serif" font-size="14" lengthAdjust="spacing" textLength="207" x="250" y="226.292">+exists(user : User) : boolean</text></g><!--class IUserRepository--><g id="elem_IUserRepository"><rect codeLine="33" fill="#F1F1F1" height="123.7813" id="IUserRepository" rx="2.5" ry="2.5" style="stroke:#181818;stroke-width:0.5;" width="339" x="7" y="311"/><text fill="#000000" font-family="sans-serif" font-size="14" font-style="italic" lengthAdjust="spacing" textLength="109" x="122" y="328.9951">IUserRepository</text><line style="stroke:#181818;stroke-width:0.5;" x1="8" x2="345" y1="337.2969" y2="337.2969"/><line style="stroke:#181818;stroke-width:0.5;" x1="8" x2="345" y1="345.2969" y2="345.2969"/><text fill="#000000" font-family="sans-serif" font-size="14" lengthAdjust="spacing" textLength="171" x="13" y="362.292">+save(user : User) : void</text><text fill="#000000" font-family="sans-serif" font-size="14" lengthAdjust="spacing" textLength="188" x="13" y="378.5889">+update(user : User) : void</text><text fill="#000000" font-family="sans-serif" font-size="14" lengthAdjust="spacing" textLength="183" x="13" y="394.8857">+delete(user : User) : void</text><text fill="#000000" font-family="sans-serif" font-size="14" lengthAdjust="spacing" textLength="243" x="13" y="411.1826">+find_by_id(userId : UserID) : User?</text><text fill="#000000" font-family="sans-serif" font-size="14" lengthAdjust="spacing" textLength="327" x="13" y="427.4795">+find_by_name(userName : UserName) : [User]</text></g><!--class IUserFactory--><g id="elem_IUserFactory"><rect codeLine="41" fill="#F1F1F1" height="58.5938" id="IUserFactory" rx="2.5" ry="2.5" style="stroke:#181818;stroke-width:0.5;" width="239" x="498" y="175"/><text fill="#000000" font-family="sans-serif" font-size="14" font-style="italic" lengthAdjust="spacing" textLength="85" x="575" y="192.9951">IUserFactory</text><line style="stroke:#181818;stroke-width:0.5;" x1="499" x2="736" y1="201.2969" y2="201.2969"/><line style="stroke:#181818;stroke-width:0.5;" x1="499" x2="736" y1="209.2969" y2="209.2969"/><text fill="#000000" font-family="sans-serif" font-size="14" lengthAdjust="spacing" textLength="227" x="504" y="226.292">+create(name: UserName): User</text></g><!--class UserRegisterService--><g id="elem_UserRegisterService"><rect codeLine="48" fill="#F1F1F1" height="91.1875" id="UserRegisterService" rx="2.5" ry="2.5" style="stroke:#181818;stroke-width:0.5;" width="275" x="216" y="7"/><text fill="#000000" font-family="sans-serif" font-size="14" lengthAdjust="spacing" textLength="140" x="283.5" y="24.9951">UserRegisterService</text><line style="stroke:#181818;stroke-width:0.5;" x1="217" x2="490" y1="33.2969" y2="33.2969"/><text fill="#000000" font-family="sans-serif" font-size="14" lengthAdjust="spacing" textLength="241" x="222" y="50.292">+user_repository : IUserRepository</text><text fill="#000000" font-family="sans-serif" font-size="14" lengthAdjust="spacing" textLength="263" x="222" y="66.5889">+domain_service: UserDomainService</text><text fill="#000000" font-family="sans-serif" font-size="14" lengthAdjust="spacing" textLength="190" x="222" y="82.8857">+user_factory: IUserFactory</text><line style="stroke:#181818;stroke-width:0.5;" x1="217" x2="490" y1="90.1875" y2="90.1875"/></g><!--class UserFactory--><g id="elem_UserFactory"><rect fill="#F1F1F1" height="42.2969" id="UserFactory" rx="2.5" ry="2.5" style="stroke:#181818;stroke-width:0.5;" width="88" x="617.5" y="352"/><text fill="#000000" font-family="sans-serif" font-size="14" lengthAdjust="spacing" textLength="82" x="620.5" y="369.9951">UserFactory</text><line style="stroke:#181818;stroke-width:0.5;" x1="618.5" x2="704.5" y1="378.2969" y2="378.2969"/><line style="stroke:#181818;stroke-width:0.5;" x1="618.5" x2="704.5" y1="386.2969" y2="386.2969"/></g><!--class SQLAlchemyUserRepository--><g id="elem_SQLAlchemyUserRepository"><rect fill="#F1F1F1" height="42.2969" id="SQLAlchemyUserRepository" rx="2.5" ry="2.5" style="stroke:#181818;stroke-width:0.5;" width="197" x="67" y="504.5"/><text fill="#000000" font-family="sans-serif" font-size="14" lengthAdjust="spacing" textLength="191" x="70" y="522.4951">SQLAlchemyUserRepository</text><line style="stroke:#181818;stroke-width:0.5;" x1="68" x2="263" y1="530.7969" y2="530.7969"/><line style="stroke:#181818;stroke-width:0.5;" x1="68" x2="263" y1="538.7969" y2="538.7969"/></g><!--reverse link IUserFactory to UserFactory--><g id="link_IUserFactory_UserFactory"><path codeLine="54" d="M626.5938,239.9206 C635.4438,273.3906 648.33,322.16 656.11,351.61 " fill="none" id="IUserFactory-backto-UserFactory" style="stroke:#181818;stroke-width:1.0;"/><polygon fill="#181818" points="625.06,234.12,623.4936,243.8435,626.3382,238.9539,631.2278,241.7984,625.06,234.12" style="stroke:#181818;stroke-width:1.0;"/></g><!--reverse link IUserRepository to SQLAlchemyUserRepository--><g id="link_IUserRepository_SQLAlchemyUserRepository"><path codeLine="55" d="M171.5918,441.194 C169.7918,465.774 168.28,486.44 166.99,504.16 " fill="none" id="IUserRepository-backto-SQLAlchemyUserRepository" style="stroke:#181818;stroke-width:1.0;"/><polygon fill="#181818" points="172.03,435.21,167.3834,443.8938,171.6648,440.1966,175.362,444.4781,172.03,435.21" style="stroke:#181818;stroke-width:1.0;"/></g><!--link UserRegisterService to IUserRepository--><g id="link_UserRegisterService_IUserRepository"><path codeLine="57" d="M269.55,98.26 C240.92,117.89 211.8,143.68 194.5,175 C171.75,216.18 167.9538,263.7147 169.5638,304.5747 " fill="none" id="UserRegisterService-to-IUserRepository" style="stroke:#181818;stroke-width:1.0;stroke-dasharray:7.0,7.0;"/><polygon fill="#181818" points="169.8,310.57,173.4425,301.4195,169.6031,305.5739,165.4488,301.7345,169.8,310.57" style="stroke:#181818;stroke-width:1.0;"/><text fill="#000000" font-family="sans-serif" font-size="13" lengthAdjust="spacing" textLength="30" x="195.5" y="209.0669">uses</text></g><!--link UserRegisterService to UserDomainService--><g id="link_UserRegisterService_UserDomainService"><path codeLine="58" d="M353.5,98.1 C353.5,122.97 353.5,147.21 353.5,168.91 " fill="none" id="UserRegisterService-to-UserDomainService" style="stroke:#181818;stroke-width:1.0;stroke-dasharray:7.0,7.0;"/><polygon fill="#181818" points="353.5,174.91,357.5,165.91,353.5,169.91,349.5,165.91,353.5,174.91" style="stroke:#181818;stroke-width:1.0;"/><text fill="#000000" font-family="sans-serif" font-size="13" lengthAdjust="spacing" textLength="30" x="354.5" y="141.0669">uses</text></g><!--link UserRegisterService to IUserFactory--><g id="link_UserRegisterService_IUserFactory"><path codeLine="59" d="M431.99,98.1 C475.77,122.97 523.7733,150.2458 561.9633,171.9458 " fill="none" id="UserRegisterService-to-IUserFactory" style="stroke:#181818;stroke-width:1.0;stroke-dasharray:7.0,7.0;"/><polygon fill="#181818" points="567.18,174.91,561.3311,166.986,562.8328,172.4399,557.3789,173.9415,567.18,174.91" style="stroke:#181818;stroke-width:1.0;"/><text fill="#000000" font-family="sans-serif" font-size="13" lengthAdjust="spacing" textLength="30" x="509.5" y="141.0669">uses</text></g><!--link UserDomainService to User--><g id="link_UserDomainService_User"><path codeLine="61" d="M377.39,234.12 C398.82,259.78 426.7445,293.2444 451.4845,322.8744 " fill="none" id="UserDomainService-to-User" style="stroke:#181818;stroke-width:1.0;stroke-dasharray:7.0,7.0;"/><polygon fill="#181818" points="455.33,327.48,452.6321,318.0079,452.1254,323.642,446.4913,323.1352,455.33,327.48" style="stroke:#181818;stroke-width:1.0;"/><text fill="#000000" font-family="sans-serif" font-size="13" lengthAdjust="spacing" textLength="30" x="415.5" y="277.0669">uses</text></g><!--link UserDomainService to IUserRepository--><g id="link_UserDomainService_IUserRepository"><path codeLine="62" d="M323.07,234.12 C300.73,255.14 273.9301,280.3487 246.0701,306.5587 " fill="none" id="UserDomainService-to-IUserRepository" style="stroke:#181818;stroke-width:1.0;stroke-dasharray:7.0,7.0;"/><polygon fill="#181818" points="241.7,310.67,250.996,307.4165,245.3417,307.244,245.5143,301.5897,241.7,310.67" style="stroke:#181818;stroke-width:1.0;"/><text fill="#000000" font-family="sans-serif" font-size="13" lengthAdjust="spacing" textLength="30" x="292.5" y="277.0669">uses</text></g><!--link IUserFactory to User--><g id="link_IUserFactory_User"><path codeLine="64" d="M596.01,234.12 C576.75,259.78 551.7728,293.0521 529.5228,322.6821 " fill="none" id="IUserFactory-to-User" style="stroke:#181818;stroke-width:1.0;stroke-dasharray:7.0,7.0;"/><polygon fill="#181818" points="525.92,327.48,534.5228,322.6851,528.9224,323.4818,528.1257,317.8813,525.92,327.48" style="stroke:#181818;stroke-width:1.0;"/><text fill="#000000" font-family="sans-serif" font-size="13" lengthAdjust="spacing" textLength="48" x="574.5" y="277.0669">creates</text></g><!--reverse link User to UserName--><g id="link_User_UserName"><path codeLine="66" d="M443.6905,427.6225 C420.9705,452.5725 401.43,474.04 381.61,495.82 " fill="none" id="User-backto-UserName" style="stroke:#181818;stroke-width:1.0;"/><polygon fill="none" points="451.77,418.75,444.7727,420.4931,443.6905,427.6225,450.6878,425.8794,451.77,418.75" style="stroke:#181818;stroke-width:1.0;"/></g><!--reverse link User to UserId--><g id="link_User_UserId"><path codeLine="67" d="M548.4867,426.9973 C574.8567,451.9473 598.19,474.04 621.2,495.82 " fill="none" id="User-backto-UserId" style="stroke:#181818;stroke-width:1.0;"/><polygon fill="none" points="539.77,418.75,541.3793,425.7792,548.4867,426.9973,546.8775,419.9681,539.77,418.75" style="stroke:#181818;stroke-width:1.0;"/></g><!--reverse link User to MailAddress--><g id="link_User_MailAddress"><path codeLine="68" d="M496.643,430.7182 C498.463,455.6682 499.81,474.04 501.4,495.82 " fill="none" id="User-backto-MailAddress" style="stroke:#181818;stroke-width:1.0;"/><polygon fill="none" points="495.77,418.75,492.2171,425.0251,496.643,430.7182,500.1959,424.4431,495.77,418.75" style="stroke:#181818;stroke-width:1.0;"/></g><!--SRC=[ZLFBJiCm4BpxAyofhL0hpZc08XMaI3n4AxWW5BdEjXWSExATYe3uT-muJPsaBUIGEElPcTbT-oo3DHE0juIN85VlG0scd6YDaFvWeY2Av3uG6wFOgZIGK2cMx0lmHG3Hfk9WtufHK-OSeH5-TfJueURKA1Huqg2I37yZR9zphuqZlBJPOeD-q01yJtBu9_oEC1vdcGAjJsICyBKmp5IeBgtMQD6bTnSrDeDeRIDg7JKxa5j96mwKlSHSsXs1bw2sZ48WvJUQUAiBdqmRFNP2ZSZ4VbTISY32CowWa9ePgIgS20DgJImlswrmuf82p8vPaotqURUIjQKL6J6d01bmE0cmHoXBLrNAid6tU_D9ixhg8ONjt_X0Jnt-nVsykegJRcatX8PrKGNEjwCA2FpIPRkEnKN16IM6oKE3MC36zXnKVnJEMAhsZOpwhTqrfXvagdrwD1nkoBVsxgDEBSvdMDgqd5vs0Sl7svZJDyYhtdJtqC0NEbJMR3O0sfAiANqKFZocVoHq1jHWqP1bnntI3H57pAAEI43bJq8ZYELqkh-ZdOYzpUr_U5tHBm00]--></g></svg>